HIERARCHY
ROOT Hips
{
	OFFSET 0.00000 0.00000 0.00000
	CHANNELS 6 Xposition Yposition Zposition Yrotation Zrotation Xrotation 
	JOINT Lumbar
	{
		OFFSET 0 0 0
		CHANNELS 3 Zrotation Xrotation Yrotation
		JOINT Neck
		{
			OFFSET 0.00 0.2701 0.00
			CHANNELS 3 Zrotation Xrotation Yrotation
			End Site
			{
				OFFSET 0.00 0.1379 0.00
			}
		}
		JOINT RightShoulder
		{
			OFFSET 0.0119 0.2289 0.1181
			CHANNELS 3 Zrotation Xrotation Yrotation
			JOINT RightElbow
			{
				OFFSET 0.00 -0.1475 0.00
				CHANNELS 2 Zrotation Yrotation
				JOINT RightWrist
				{
					OFFSET 0.00 -0.1605 0.00
					CHANNELS 2 Zrotation Xrotation
					End Site
					{
						OFFSET 0.0040 -0.1068 0.0006
					}
				}
			}
		}
		JOINT LeftShoulder
		{
			OFFSET 0.0119 0.2289 -0.1181
			CHANNELS 3 Zrotation Xrotation Yrotation
			JOINT LeftElbow
			{
				OFFSET 0.00 -0.1475 0.00
				CHANNELS 2 Zrotation Yrotation
				JOINT LeftWrist
				{
					OFFSET 0.00 -0.1605 0.00
					CHANNELS 2 Zrotation Xrotation
					End Site
					{
						OFFSET 0.0040 -0.1068 -0.0006
					}
				}
			}
		}
	}
	JOINT RightHip
	{
		OFFSET 0.0316 -0.0424 0.0458
		CHANNELS 3 Zrotation Xrotation Yrotation
		JOINT RightKnee
		{
			OFFSET 0.00 -0.2438 0.00
			CHANNELS 1 Zrotation
			JOINT RightAnkle
			{
				OFFSET 0.00 -0.2449 0.00
				CHANNELS 3 Zrotation Xrotation Yrotation
				End Site
				{
					OFFSET 0.1237 -0.0542 0.0051
				}
			}
		}
	}
	JOINT LeftHip
	{
		OFFSET 0.0316 -0.0424 -0.0458
		CHANNELS 3 Zrotation Xrotation Yrotation
		JOINT LeftKnee
		{
			OFFSET 0.00 -0.2438 0.00
			CHANNELS 1 Zrotation
			JOINT LeftAnkle
			{
				OFFSET 0.00 -0.2449 0.00
				CHANNELS 3 Zrotation Xrotation Yrotation
				End Site
				{
					OFFSET 0.1237 -0.0542 -0.0051
				}
			}
		}
	}
}
MOTION
Frames: 14
Frame Time: 0.02
0.00164 0.0009 -0.00178 29.00332 -19.80129 -4.32841 44.62994 -0.85695 -7.77142 -10.97271 2.62675 -0.38002 -17.8376 -6.41881 -0.09444 25.79084 97.18071 8.55687 1.10481 -20.66757 7.42207 -4.48842 29.8514 -107.22219 16.39258 -1.28013 28.22045 -2.7184 -1.97599 -20.00446 -6.84452 -4.88669 -3.27707 33.56341 3.20002 4.17091 -24.19932 -6.33153 2.90848 2.15659
0.00192 0.00087 -0.00193 29.00919 -19.81135 -4.30395 44.60566 -0.85536 -7.67824 -10.88498 2.61041 -0.38039 -17.75539 -6.41956 0.01258 25.73592 97.10819 8.5461 1.11097 -20.49962 7.43645 -4.59622 29.78909 -107.17547 16.37434 -1.2868 28.20724 -2.77054 -2.11659 -20.01692 -6.83417 -4.88218 -3.26964 33.54612 3.16859 4.17048 -24.20506 -6.32844 2.91852 2.15952
0.00219 0.00085 -0.00209 29.01505 -19.82139 -4.27956 44.58145 -0.85378 -7.58537 -10.7976 2.59412 -0.38077 -17.67348 -6.41998 0.11777 25.68144 97.04255 8.53714 1.11809 -20.33233 7.45095 -4.70401 29.72738 -107.12895 16.3562 -1.29344 28.19404 -2.82255 -2.25697 -20.02936 -6.82384 -4.87767 -3.26222 33.52886 3.13722 4.16988 -24.2108 -6.32535 2.92854 2.16245
0.00246 0.00082 -0.00224 29.02092 -19.83141 -4.25516 44.55725 -0.85221 -7.49249 -10.71018 2.57784 -0.38114 -17.59149 -6.42061 0.22401 25.62662 96.97182 8.52681 1.12447 -20.16486 7.46526 -4.81149 29.66516 -107.08241 16.33804 -1.30009 28.18085 -2.87452 -2.39714 -20.04179 -6.81353 -4.87317 -3.25481 33.5116 3.10588 4.16943 -24.21652 -6.32227 2.93855 2.16538
0.00273 0.00079 -0.00239 29.02677 -19.84148 -4.23071 44.53297 -0.85063 -7.39929 -10.62234 2.56152 -0.38151 -17.50933 -6.42187 0.3332 25.57158 96.89036 8.51366 1.12932 -19.99688 7.47954 -4.91898 29.60265 -107.03556 16.31974 -1.30676 28.16769 -2.92663 -2.53752 -20.05422 -6.8032 -4.86868 -3.24739 33.49436 3.07448 4.16918 -24.22226 -6.31918 2.94858 2.1683
0.003 0.00076 -0.00254 29.03264 -19.85146 -4.20646 44.5089 -0.84904 -7.30713 -10.53588 2.54529 -0.38188 -17.428 -6.42064 0.43031 25.51847 96.85713 8.5133 1.1411 -19.83112 7.49457 -5.02745 29.54286 -106.98969 16.30191 -1.31333 28.15447 -2.97843 -2.67796 -20.0667 -6.79285 -4.86411 -3.23996 33.47708 3.04318 4.16786 -24.22799 -6.31612 2.95861 2.17126
0.00327 0.00073 -0.00269 29.03851 -19.86153 -4.1818 44.48448 -0.84749 -7.213 -10.4469 2.52888 -0.38225 -17.34477 -6.42394 0.5501 25.46068 96.7306 8.48815 1.13948 -19.66061 7.50772 -5.13352 29.4765 -106.94214 16.28325 -1.32013 28.14127 -3.03077 -2.81788 -20.07906 -6.78258 -4.85974 -3.23257 33.4598 3.01171 4.16876 -24.23372 -6.31299 2.9686 2.17412
0.00354 0.0007 -0.00284 29.04432 -19.87165 -4.15755 44.46029 -0.84586 -7.12062 -10.35995 2.51268 -0.38262 -17.26386 -6.42395 0.65178 25.40874 96.68335 8.48413 1.14917 -19.49536 7.52325 -5.24237 29.4183 -106.8957 16.26516 -1.32668 28.12823 -3.08266 -2.95871 -20.09153 -6.7722 -4.85512 -3.22512 33.44271 2.98041 4.16748 -24.23947 -6.30994 2.97866 2.17709
0.00382 0.00067 -0.00299 29.05032 -19.88131 -4.1337 44.43675 -0.84432 -7.03061 -10.2766 2.49656 -0.38299 -17.18354 -6.41633 0.71992 25.3579 96.76102 8.5131 1.17701 -19.33297 7.53913 -5.35248 29.36179 -106.85235 16.24854 -1.33306 28.11467 -3.13381 -3.09904 -20.10415 -6.76181 -4.85044 -3.21772 33.4251 2.94924 4.16401 -24.24516 -6.30693 2.98871 2.18014
0.00409 0.00064 -0.00315 29.05601 -19.89206 -4.10722 44.41055 -0.84284 -6.92766 -10.17593 2.47943 -0.38337 -17.09304 -6.44176 0.94673 25.28255 96.20429 8.37382 1.11346 -19.14338 7.54533 -5.44892 29.27064 -106.79641 16.22581 -1.3408 28.10195 -3.18865 -3.23742 -20.11598 -6.75185 -4.84685 -3.2104 33.40819 2.91709 4.17457 -24.25095 -6.30351 2.99849 2.18258
0.00436 0.00061 -0.00329 29.06183 -19.90151 -4.08649 44.3893 -0.84086 -6.85158 -10.10962 2.4648 -0.38373 -17.02834 -6.40444 0.86084 25.2705 96.93141 8.57556 1.23429 -19.01807 7.57683 -5.57827 29.26848 -106.76375 16.21445 -1.34543 28.08882 -3.23604 -3.38298 -20.12941 -6.74076 -4.84049 -3.20264 33.39125 2.88719 4.15464 -24.25667 -6.30106 3.00906 2.18639
0.00466 0.00061 -0.00338 29.07199 -19.89815 -4.0801 44.38675 -0.8403 -6.85345 -10.15739 2.45438 -0.38402 -17.00177 -6.13637 -0.27716 25.34406 101.6759 9.83979 1.93694 -19.01689 7.63838 -5.76205 29.38641 -106.8217 16.24735 -1.34316 28.06229 -3.25963 -3.52032 -20.14768 -6.72867 -4.83053 -3.19594 33.36108 2.86226 4.05813 -24.26112 -6.30048 3.01993 2.19307
0.00495 0.00062 -0.00345 29.0814 -19.89458 -4.0798 44.38786 -0.83863 -6.88152 -10.23666 2.44708 -0.38433 -17.00865 -5.81655 -1.6961 25.50113 107.62406 11.42451 2.81155 -19.09164 7.73259 -5.98316 29.61935 -106.89747 16.2893 -1.33728 28.03685 -3.27594 -3.668 -20.16737 -6.71523 -4.81721 -3.18847 33.33246 2.84001 3.9301 -24.26563 -6.30104 3.03184 2.20123
0.00524 0.00062 -0.00352 29.08871 -19.89791 -4.07756 44.38443 -0.83578 -6.89483 -10.28774 2.43996 -0.38462 -17.01961 -5.55812 -2.85603 25.67285 112.69085 12.77787 3.55679 -19.16359 7.83764 -6.21364 29.87734 -106.94844 16.31854 -1.33221 28.01987 -3.29831 -3.83178 -20.18626 -6.70082 -4.80258 -3.17972 33.31278 2.81707 3.81139 -24.27093 -6.30159 3.04459 2.20935
